<?xml version="1.0" encoding="UTF-8"?><svg id="Layer_2" xmlns="http://www.w3.org/2000/svg" viewBox="0 0 1000 287.79"><defs><style>.cls-1{fill:#fff;stroke-width:0px;}</style></defs><g id="Layer_1-2"><path class="cls-1" d="M385.53,92.4c-10-14.24-29.08-20.3-45.44-20.3-36.35,0-69.37,28.18-69.37,73.63s33.02,73.63,69.37,73.63c15.75,0,35.44-6.36,45.44-20.29v17.57h39.7V75.43h-39.7v16.96ZM347.67,182.37c-20.21.04-36.62-16.31-36.67-36.51,0-.05,0-.09,0-.14,0-20.9,16.66-36.35,36.66-36.35,18.48,0,36.66,14.54,36.66,36.35,0,21.51-17.26,36.66-36.65,36.66Z"/><path class="cls-1" d="M560.76,92.09c-10.3-13.63-29.38-20-45.44-20-36.35,0-69.37,28.18-69.37,73.63s33.02,73.63,69.37,73.63c15.75,0,35.14-6.36,45.44-19.99v2.12c0,36.96-16.05,50.89-41.51,50.89-15.16,0-29.69-9.09-35.73-21.81l-33.02,14.23c12.09,26.03,38.43,42.99,68.75,42.99,49.98,0,81.19-28.78,81.19-90.59v-121.77h-39.68v16.66ZM522.86,182.37c-20.21.04-36.62-16.32-36.66-36.53,0-.04,0-.09,0-.13,0-20.9,16.66-36.35,36.66-36.35,18.48,0,36.66,14.54,36.66,36.35.01,21.51-17.26,36.66-36.66,36.66Z"/><path class="cls-1" d="M735.96,92.09c-10.3-13.63-29.39-20-45.44-20-36.35,0-69.37,28.18-69.37,73.63s33.02,73.63,69.37,73.63c15.75,0,35.14-6.36,45.44-19.99v2.12c0,36.96-16.05,50.89-41.51,50.89-15.16,0-29.69-9.09-35.73-21.81l-33.03,14.21c12.12,26.06,38.47,43.02,68.77,43.02,49.98,0,81.19-28.78,81.19-90.59v-121.77h-39.68v16.66ZM698.09,182.37c-20.21.04-36.62-16.32-36.66-36.53,0-.04,0-.09,0-.13,0-20.9,16.66-36.35,36.66-36.35,18.48,0,36.66,14.54,36.66,36.35s-17.27,36.66-36.66,36.66Z"/><rect class="cls-1" x="960.32" width="39.68" height="216.6"/><path class="cls-1" d="M870.32,71.13c-41.92,0-73.66,32.02-73.66,73.95s32.61,74.53,76.28,74.53c22.71,0,43.96-8.73,58.23-24.18l-20.67-27.07c-9.9,9.89-23.58,15.72-37.56,15.72-15.43,0-27.07-6.98-33.48-18.34,25.04-6.99,61.14-11.35,98.98-11.65.45-3.28.65-6.59.58-9.89-.29-43.66-28.24-73.06-68.71-73.06ZM835.38,137.22c2.91-18.34,15.72-30.57,33.77-30.57,14.85,0,25.91,7.86,29.7,20.67-21.84.87-44.25,4.37-63.47,9.9Z"/><path class="cls-1" d="M47.29,219.39c-3.03,0-6.05-.42-8.97-1.22C7.41,209.83,1.6,165.44,0,123.1l42.71-1.62c1.12,29.53,4.48,44.22,6.95,51.21,2.93-2.89,6.3-6.6,8.9-9.47,14.67-16.18,34.76-38.32,65.16-38.92h1.24c31.35,0,51.82,23.77,65.42,39.56,2.41,2.8,5.54,6.44,8.24,9.24,3.57-6.79,7.79-19.85,8.51-37.14,1.06-25.34-5.74-49.24-18.66-65.56-13.33-16.84-32.27-25.1-45.82-29.06L154.65.31c27.97,8.17,51.25,23.23,67.34,43.54,31.58,39.89,33.32,95.72,21.03,133.36-7.37,22.57-19.22,36.7-34.25,40.86-22.69,6.27-38.26-11.81-50.76-26.35-12.58-14.61-22.33-24.98-33.42-24.71-11.98.24-23.35,12.78-34.35,24.9-11.26,12.43-24.91,27.47-42.94,27.47Z"/></g></svg>
